<svg width="24" height="24" viewBox="0 0 24 24" fill="none" xmlns="http://www.w3.org/2000/svg">
<path d="M12 17.0833C11.2748 17.0833 10.5659 16.8683 9.96291 16.4654C9.35993 16.0625 8.88996 15.4898 8.61244 14.8198C8.33492 14.1498 8.26231 13.4126 8.40379 12.7013C8.54527 11.9901 8.89448 11.3367 9.40728 10.8239C9.92007 10.3111 10.5734 9.96193 11.2847 9.82045C11.9959 9.67898 12.7332 9.75159 13.4032 10.0291C14.0732 10.3066 14.6458 10.7766 15.0487 11.3796C15.4516 11.9826 15.6667 12.6915 15.6667 13.4167C15.6667 14.3891 15.2804 15.3218 14.5927 16.0094C13.9051 16.697 12.9725 17.0833 12 17.0833ZM17.5 20.75C17.5 20.0207 17.2103 19.3212 16.6945 18.8055C16.1788 18.2897 15.4793 18 14.75 18H9.25C8.52065 18 7.82118 18.2897 7.30546 18.8055C6.78973 19.3212 6.5 20.0207 6.5 20.75V23.5H17.5V20.75ZM17.5 8.83333C16.7748 8.83333 16.0659 8.61829 15.4629 8.21539C14.8599 7.81249 14.39 7.23984 14.1124 6.56984C13.8349 5.89984 13.7623 5.1626 13.9038 4.45134C14.0453 3.74007 14.3945 3.08674 14.9073 2.57394C15.4201 2.06115 16.0734 1.71193 16.7847 1.57046C17.4959 1.42898 18.2332 1.50159 18.9032 1.77911C19.5732 2.05663 20.1458 2.5266 20.5487 3.12958C20.9516 3.73256 21.1667 4.44147 21.1667 5.16667C21.1667 6.13913 20.7804 7.07176 20.0927 7.75939C19.4051 8.44703 18.4725 8.83333 17.5 8.83333ZM6.5 8.83333C5.7748 8.83333 5.06589 8.61829 4.46291 8.21539C3.85993 7.81249 3.38996 7.23984 3.11244 6.56984C2.83492 5.89984 2.76231 5.1626 2.90379 4.45134C3.04527 3.74007 3.39448 3.08674 3.90728 2.57394C4.42007 2.06115 5.07341 1.71193 5.78467 1.57046C6.49593 1.42898 7.23318 1.50159 7.90317 1.77911C8.57317 2.05663 9.14582 2.5266 9.54872 3.12958C9.95162 3.73256 10.1667 4.44147 10.1667 5.16667C10.1667 6.13913 9.78036 7.07176 9.09273 7.75939C8.40509 8.44703 7.47246 8.83333 6.5 8.83333ZM6.5 13.4167C6.49953 12.0622 7.00155 10.7557 7.90892 9.75H3.75C3.02065 9.75 2.32118 10.0397 1.80546 10.5555C1.28973 11.0712 1 11.7707 1 12.5L1 15.25H6.81992C6.6094 14.6616 6.5012 14.0416 6.5 13.4167ZM17.1801 15.25H23V12.5C23 11.7707 22.7103 11.0712 22.1945 10.5555C21.6788 10.0397 20.9793 9.75 20.25 9.75H16.0911C16.7533 10.4824 17.2043 11.3808 17.3961 12.3494C17.5879 13.318 17.5132 14.3205 17.1801 15.25Z" fill="#0593FE"/>
</svg>
