<svg width="24" height="25" viewBox="0 0 24 25" fill="none" xmlns="http://www.w3.org/2000/svg">
<g clip-path="url(#clip0_1_3246)">
<path d="M21 13.9999C23 11.4999 26 10.0472 20.2934 4.58671C16.6888 1.13764 13.9177 -1.00011 9 2.99987L4.83118 6.88747L13.9177 15.5614C16.5 12.4999 18.3756 12.9999 21 13.9999ZM12.9597 17.4275L3.49075 8.39259C2.31788 10.2504 2.55847 12.6988 4.234 14.3024L5.71621 15.7214L1.29108 19.3878C0.921599 19.6954 0.900118 20.2367 1.24811 20.5689L3.54231 22.7631C3.88601 23.0953 4.45311 23.0747 4.77533 22.722L8.61188 18.4855L10.1456 19.9497C10.992 20.7576 12.0618 21.2005 13.1659 21.3153C12.8609 20.6182 12.6933 19.8553 12.6933 19.0556C12.689 18.4896 12.8007 17.9483 12.9597 17.4275ZM18.8756 15.1226C16.5986 15.1226 14.7512 16.8861 14.7512 19.0597C14.7512 21.2333 16.5986 22.9968 18.8756 22.9968C21.1526 22.9968 23 21.2333 23 19.0597C23 16.8861 21.1526 15.1226 18.8756 15.1226Z" fill="#0593FE"/>
<circle cx="22.5" cy="18.5" r="0.5" fill="#F6F5F8"/>
<circle cx="15.5" cy="17.5" r="0.5" fill="#F6F5F8"/>
<circle cx="19.5" cy="19.5" r="0.5" fill="#F6F5F8"/>
<circle cx="21.5" cy="21.5" r="0.5" fill="#F6F5F8"/>
<circle cx="21.5" cy="16.5" r="0.5" fill="#F6F5F8"/>
<circle cx="18.5" cy="16.5" r="0.5" fill="#F6F5F8"/>
<circle cx="16.5" cy="20.5" r="0.5" fill="#F6F5F8"/>
<circle cx="19.5" cy="22.5" r="0.5" fill="#F6F5F8"/>
</g>
<defs>
<clipPath id="clip0_1_3246">
<rect width="24" height="24" fill="white" transform="translate(0 0.5)"/>
</clipPath>
</defs>
</svg>
