<svg width="22" height="22" viewBox="0 0 22 22" fill="none" xmlns="http://www.w3.org/2000/svg">
<path d="M11 15.5833C10.2748 15.5833 9.56589 15.3683 8.96291 14.9654C8.35993 14.5625 7.88996 13.9898 7.61244 13.3198C7.33492 12.6498 7.26231 11.9126 7.40379 11.2013C7.54527 10.4901 7.89448 9.83673 8.40728 9.32394C8.92007 8.81115 9.57341 8.46193 10.2847 8.32045C10.9959 8.17898 11.7332 8.25159 12.4032 8.52911C13.0732 8.80663 13.6458 9.2766 14.0487 9.87958C14.4516 10.4826 14.6667 11.1915 14.6667 11.9167C14.6667 12.8891 14.2804 13.8218 13.5927 14.5094C12.9051 15.197 11.9725 15.5833 11 15.5833ZM16.5 19.25C16.5 18.5207 16.2103 17.8212 15.6945 17.3055C15.1788 16.7897 14.4793 16.5 13.75 16.5H8.25C7.52065 16.5 6.82118 16.7897 6.30546 17.3055C5.78973 17.8212 5.5 18.5207 5.5 19.25V22H16.5V19.25ZM16.5 7.33333C15.7748 7.33333 15.0659 7.11829 14.4629 6.71539C13.8599 6.31249 13.39 5.73984 13.1124 5.06984C12.8349 4.39984 12.7623 3.6626 12.9038 2.95134C13.0453 2.24007 13.3945 1.58674 13.9073 1.07394C14.4201 0.561151 15.0734 0.211935 15.7847 0.0704556C16.4959 -0.0710235 17.2332 0.0015887 17.9032 0.27911C18.5732 0.556631 19.1458 1.0266 19.5487 1.62958C19.9516 2.23256 20.1667 2.94147 20.1667 3.66667C20.1667 4.63913 19.7804 5.57176 19.0927 6.25939C18.4051 6.94703 17.4725 7.33333 16.5 7.33333ZM5.5 7.33333C4.7748 7.33333 4.06589 7.11829 3.46291 6.71539C2.85993 6.31249 2.38996 5.73984 2.11244 5.06984C1.83492 4.39984 1.76231 3.6626 1.90379 2.95134C2.04527 2.24007 2.39448 1.58674 2.90728 1.07394C3.42007 0.561151 4.07341 0.211935 4.78467 0.0704556C5.49593 -0.0710235 6.23318 0.0015887 6.90317 0.27911C7.57317 0.556631 8.14582 1.0266 8.54872 1.62958C8.95162 2.23256 9.16667 2.94147 9.16667 3.66667C9.16667 4.63913 8.78036 5.57176 8.09272 6.25939C7.40509 6.94703 6.47246 7.33333 5.5 7.33333ZM5.5 11.9167C5.49953 10.5622 6.00155 9.25566 6.90892 8.25H2.75C2.02065 8.25 1.32118 8.53973 0.805456 9.05546C0.289731 9.57118 0 10.2707 0 11L0 13.75H5.81992C5.60941 13.1616 5.5012 12.5416 5.5 11.9167ZM16.1801 13.75H22V11C22 10.2707 21.7103 9.57118 21.1945 9.05546C20.6788 8.53973 19.9793 8.25 19.25 8.25H15.0911C15.7533 8.98242 16.2043 9.88082 16.3961 10.8494C16.5879 11.818 16.5132 12.8205 16.1801 13.75Z" fill="#0593FE"/>
</svg>
